<?xml version="1.0" standalone="no"?>
<!DOCTYPE svg PUBLIC "-//W3C//DTD SVG 20010904//EN"
 "http://www.w3.org/TR/2001/REC-SVG-20010904/DTD/svg10.dtd">
<svg version="1.0" xmlns="http://www.w3.org/2000/svg"
 width="360.000000pt" height="360.000000pt" viewBox="0 0 360.000000 360.000000"
 preserveAspectRatio="xMidYMid meet">

<g transform="translate(0.000000,360.000000) scale(0.100000,-0.100000)"
fill="#000000" stroke="none">
<path d="M1545 3144 c-198 -30 -376 -84 -538 -164 -280 -140 -451 -324 -529
-570 -33 -108 -33 -295 1 -393 28 -83 102 -183 153 -210 83 -42 162 -29 187
32 18 43 0 74 -88 145 -110 89 -151 163 -151 273 0 83 18 151 68 253 139 286
533 503 972 535 161 12 309 -19 409 -86 110 -73 162 -186 142 -309 -42 -260
-306 -439 -609 -414 l-84 6 7 27 c14 57 155 539 169 579 18 50 24 49 -109 22
-55 -11 -149 -23 -208 -26 -103 -7 -109 -8 -118 -31 -16 -43 -12 -53 26 -53
49 0 78 -31 70 -73 -11 -52 -79 -297 -201 -722 -120 -421 -158 -520 -218 -573
-38 -33 -116 -65 -218 -91 -66 -16 -68 -17 -83 -60 l-15 -44 48 6 c26 4 88 11
137 18 55 7 139 9 215 5 319 -16 391 -18 452 -12 76 8 94 19 103 62 l6 31 -73
-14 c-66 -13 -241 -13 -255 0 -2 3 51 197 119 431 l122 427 46 -3 45 -3 47
-140 c151 -445 222 -611 333 -775 31 -47 57 -87 58 -91 1 -3 -56 -81 -128
-175 -186 -243 -343 -394 -409 -394 -8 0 -38 20 -68 45 -29 25 -63 48 -76 52
-59 14 -130 -57 -117 -117 8 -38 65 -87 111 -96 63 -12 146 2 210 34 115 58
208 151 443 445 l103 128 89 -85 c49 -47 120 -103 157 -125 207 -123 493 -147
673 -55 128 64 208 190 169 265 -14 25 -62 49 -97 49 -54 0 -88 -32 -119 -111
-36 -92 -76 -133 -151 -155 -143 -41 -311 27 -441 178 -52 61 -142 195 -142
212 0 20 127 171 188 225 86 76 156 110 254 122 182 22 202 27 226 54 63 74
-19 168 -131 150 -153 -26 -339 -159 -507 -364 -41 -50 -77 -91 -81 -91 -11 0
-86 171 -175 397 -47 120 -107 260 -135 311 -27 51 -49 96 -49 101 0 4 31 13
69 20 379 68 658 330 639 598 -13 176 -143 292 -403 359 -89 24 -122 27 -305
29 -113 2 -218 1 -235 -1z"/>
</g>
</svg>
